HIERARCHY
ROOT hip
{
	OFFSET 0.000000 0.000000 0.000000 
	CHANNELS 6 Xposition Yposition Zposition Xrotation Zrotation Yrotation
	JOINT abdomen
	{
		OFFSET 0.000000 3.402643 0.000000 
		CHANNELS 3 Xrotation Zrotation Yrotation
		JOINT chest
		{
			OFFSET 0.000000 8.438565 -0.680529 
			CHANNELS 3 Xrotation Zrotation Yrotation
			JOINT neck
			{
				OFFSET 0.000000 10.207942 -0.272212 
				CHANNELS 3 Xrotation Zrotation Yrotation
				JOINT head
				{
					OFFSET 0.000000 3.130431 0.000000 
					CHANNELS 3 Xrotation Zrotation Yrotation
					End Site
					{
						OFFSET 0.000000 3.130435 0.000000 
					}
				}
			}
			JOINT lCollar
			{
				OFFSET 3.470700 6.669187 -0.816635 
				CHANNELS 3 Yrotation Zrotation Xrotation
				JOINT lShldr
				{
					OFFSET 3.198488 0.000000 0.000000 
					CHANNELS 3 Zrotation Yrotation Xrotation
					JOINT lForeArm
					{
						OFFSET 10.139888 0.000000 0.000000 
						CHANNELS 3 Yrotation Zrotation Xrotation
						JOINT lHand
						{
							OFFSET 8.370511 0.000000 0.000000 
							CHANNELS 3 Zrotation Yrotation Xrotation
							End Site
							{
								OFFSET 4.083176 0.000000 0.000000 
							}
						}
					}
				}
			}
			JOINT rCollar
			{
				OFFSET -3.470700 6.669187 -0.816635 
				CHANNELS 3 Yrotation Zrotation Xrotation
				JOINT rShldr
				{
					OFFSET -3.198488 0.000000 0.000000 
					CHANNELS 3 Zrotation Yrotation Xrotation
					JOINT rForeArm
					{
						OFFSET -10.139888 0.000000 0.000000 
						CHANNELS 3 Yrotation Zrotation Xrotation
						JOINT rHand
						{
							OFFSET -8.370511 0.000000 0.000000 
							CHANNELS 3 Zrotation Yrotation Xrotation
							End Site
							{
								OFFSET -4.083176 0.000000 0.000000 
							}
						}
					}
				}
			}
		}
	}
	JOINT lThigh
	{
		OFFSET 5.308129 -1.633274 1.361059 
		CHANNELS 3 Xrotation Zrotation Yrotation
		JOINT lShin
		{
			OFFSET -2.041588 -20.007561 0.000000 
			CHANNELS 3 Xrotation Zrotation Yrotation
			JOINT lFoot
			{
				OFFSET 0.000000 -19.190928 -1.224953 
				CHANNELS 3 Xrotation Yrotation Zrotation
				End Site
				{
					OFFSET 0.000000 -2.449906 4.627600 
				}
			}
		}
	}
	JOINT rThigh
	{
		OFFSET -5.308129 -1.633274 1.361059 
		CHANNELS 3 Xrotation Zrotation Yrotation
		JOINT rShin
		{
			OFFSET 2.041588 -20.007561 0.000000 
			CHANNELS 3 Xrotation Zrotation Yrotation
			JOINT rFoot
			{
				OFFSET 0.000000 -19.190928 -1.224953 
				CHANNELS 3 Xrotation Yrotation Zrotation
				End Site
				{
					OFFSET 0.000000 -2.449906 4.627600 
				}
			}
		}
	}
}
MOTION
Frames: 17
Frame Time: 0.033333
0.273997 49.889309 2.028859 0.436834 0.797214 5.410718 0.000000 0.000000 0.000000 -3.414429 -1.074201 0.331973 5.213982 -0.722656 0.068354 4.862865 -0.244140 0.097655 -1.143430 8.171658 -2.475609 -4.698833 -3.794018 -13.922103 0.033575 -6.550481 14.652989 -3.459984 -5.352331 -3.106969 0.014447 -10.186448 -2.568846 3.516526 -8.052669 -17.480103 -0.912069 2.084031 16.241150 4.909056 -2.657909 -3.458593 6.139596 5.418354 5.324841 -1.930948 -3.187552 7.382122 -2.788722 0.042737 -2.565297 6.629999 -9.608887 -9.166227 -1.502911 4.049433 -10.296803 -3.010725 -0.162188 5.165813 
0.273878 49.888805 2.031388 0.507314 0.816631 5.430248 0.000000 0.000000 0.000000 -3.434806 -1.152322 0.351491 5.184199 -0.791014 0.097647 4.921925 0.048828 0.058602 -1.126571 8.269190 -2.496345 -4.803570 -3.846801 -13.981687 0.030334 -6.496184 14.838404 -3.285631 -5.470387 -3.125118 0.051356 -10.119910 -2.597682 3.480465 -8.136684 -17.408173 -0.902063 2.141035 15.606530 5.011694 -2.573722 -3.456949 6.010275 5.367998 5.242844 -1.805962 -3.139979 7.401475 -2.913188 0.046378 -2.469912 6.549746 -9.655844 -9.171077 -1.455355 4.070647 -10.294444 -3.047311 -0.156962 5.189609 
0.272874 49.888554 2.036436 0.528051 0.826327 5.449918 0.000000 0.000000 0.000000 -3.434180 -1.181623 0.312434 5.222925 -0.898436 0.107409 4.824382 0.136719 0.068382 -1.129897 8.162063 -2.505999 -4.715738 -3.834995 -13.986629 0.028319 -6.467842 14.885815 -3.381101 -5.357824 -3.113627 0.080928 -10.326520 -2.599381 3.670357 -8.161295 -17.349009 -0.913377 2.200647 15.245474 4.873174 -2.542268 -3.457304 6.117455 5.357275 5.308329 -2.085237 -3.214695 7.315325 -2.831557 0.056615 -2.222625 6.530754 -9.666091 -9.191754 -1.385816 4.078844 -10.308355 -3.103056 -0.176697 5.129694 
0.274548 49.887547 2.039174 0.514575 0.787441 5.449776 0.000000 0.000000 0.000000 -3.395429 -1.201153 0.322195 5.212896 -0.878904 0.126938 4.853561 0.029297 0.087896 -1.153316 8.201149 -2.465936 -4.818828 -3.822509 -14.002658 0.029406 -6.425142 14.816859 -3.318942 -5.237326 -3.127382 0.178533 -10.349777 -2.539960 3.653869 -8.251040 -17.204409 -0.907001 2.253043 15.236146 4.548767 -2.667611 -3.470196 6.111258 5.419047 5.335333 -1.971677 -3.218565 7.395539 -2.900348 0.054013 -2.329617 6.520670 -9.616446 -9.155612 -1.364723 4.066584 -10.306541 -3.113184 -0.188360 5.262229 
0.280447 49.884033 2.041232 0.492262 0.758276 5.449773 0.000000 0.000000 0.000000 -3.327421 -1.191385 0.341723 5.154857 -0.908202 0.087880 4.912136 0.039062 0.039069 -1.047559 8.126795 -2.406666 -4.756004 -3.949069 -14.012731 0.029204 -6.512667 14.700389 -3.229390 -5.437443 -3.122799 0.045171 -10.431591 -2.501565 3.718005 -8.138567 -17.249619 -0.893402 2.278125 15.002007 4.556449 -2.793960 -3.480373 6.077673 5.425065 5.297646 -1.889937 -3.155881 7.388224 -2.984053 0.052827 -2.394002 6.550406 -9.588178 -9.142592 -1.376761 4.040789 -10.287107 -3.125657 -0.171661 5.269254 
0.279989 49.894978 2.049095 0.498440 0.719379 5.459533 0.000000 0.000000 0.000000 -3.309305 -1.249971 0.390532 5.135520 -0.781249 0.087882 5.009427 -0.166015 0.117187 -1.004143 8.261597 -2.398439 -4.874390 -4.059659 -14.104602 0.039155 -6.453452 14.837365 -3.355136 -5.473538 -3.108894 -0.120917 -10.209403 -2.499854 3.614715 -8.021481 -17.522703 -0.905255 2.224930 14.903596 4.477959 -2.622384 -3.473059 6.118246 5.494850 5.384039 -1.993231 -3.230655 7.319710 -2.832915 0.039062 -2.356300 6.547474 -9.544922 -9.127557 -1.372249 4.063217 -10.316909 -3.090414 -0.159114 5.199996 
0.289595 49.889942 2.055225 0.432740 0.748555 5.449773 0.000000 0.000000 0.000000 -3.279395 -1.289038 0.351474 5.213287 -0.830077 0.107411 5.048589 -0.087890 0.156250 -1.056373 8.282593 -2.368007 -4.962896 -3.990664 -14.097540 0.023392 -6.377917 14.873990 -3.414441 -5.466982 -3.103936 -0.071564 -10.318856 -2.471015 3.710546 -8.040509 -17.642067 -0.904447 2.132282 15.234959 4.730540 -2.442814 -3.451937 6.226707 5.427604 5.324140 -2.030880 -3.170577 7.280708 -2.924085 0.054678 -2.297876 6.576764 -9.594094 -9.183834 -1.245407 4.082488 -10.327425 -3.156430 -0.179744 5.298104 
0.298279 49.880379 2.062294 0.387289 0.690304 5.381291 0.000000 0.000000 0.000000 -3.269390 -1.249976 0.351479 5.281500 -0.908202 0.107408 5.097716 0.039062 0.087897 -0.973621 8.191019 -2.358410 -4.839127 -3.979776 -14.006375 0.031428 -6.430039 15.003356 -3.402526 -5.505377 -3.102342 0.073780 -10.471385 -2.442165 3.882650 -8.152886 -17.554325 -0.891693 2.115242 15.283777 4.608593 -2.361614 -3.449408 6.144441 5.482814 5.332926 -1.689794 -3.112438 7.305517 -3.193527 0.056601 -2.520683 6.689382 -9.550763 -9.159716 -1.431276 4.093060 -10.253771 -3.103953 -0.172286 5.268672 
0.300719 49.886787 2.065082 0.349574 0.709794 5.342232 0.000000 0.000000 0.000000 -3.250442 -1.308568 0.361234 5.359730 -0.937499 0.097643 5.009749 -0.009766 0.097656 -0.967881 8.161020 -2.337697 -4.793660 -3.965509 -13.980632 0.025478 -6.448957 14.905221 -3.498492 -5.530709 -3.101375 0.105957 -10.531100 -2.413350 3.918470 -8.206319 -17.426191 -0.882791 2.158217 15.274434 4.683710 -2.308325 -3.448755 6.259159 5.478300 5.368827 -1.854981 -3.170218 7.308028 -3.040952 0.067784 -2.462143 6.736599 -9.578870 -9.184193 -1.453145 4.096666 -10.167522 -3.047988 -0.151238 5.223626 
0.306430 49.883518 2.069003 0.358977 0.709828 5.312938 0.000000 0.000000 0.000000 -3.232046 -1.376921 0.390512 5.300765 -0.888670 0.126938 5.126930 -0.009766 0.136719 -0.908725 8.207287 -2.328078 -4.856450 -4.020114 -14.060358 0.021643 -6.410863 14.600154 -3.508424 -5.364706 -3.101765 -0.020888 -10.525844 -2.413374 3.937006 -8.076568 -17.474434 -0.908491 2.180364 15.499565 4.720789 -2.111052 -3.434699 6.253261 5.484200 5.439329 -1.841640 -3.213734 7.308681 -3.070207 0.056272 -2.445990 6.717217 -9.579089 -9.183857 -1.425376 4.098830 -10.136121 -3.110464 -0.162920 5.167109 
0.312536 49.879494 2.075500 0.352441 0.651588 5.215283 0.000000 0.000000 0.000000 -3.242281 -1.376918 0.410273 5.281629 -0.839842 0.107410 5.116813 -0.146484 0.146484 -0.889410 8.167623 -2.337757 -4.798650 -3.899585 -14.015765 0.017415 -6.441667 14.580710 -3.455743 -5.430174 -3.102771 0.041837 -10.430699 -2.411595 3.881813 -8.070544 -17.581511 -0.923420 2.134685 15.674779 4.793578 -2.018928 -3.430063 6.217015 5.534439 5.465682 -1.709256 -3.210076 7.436737 -3.226720 0.059164 -2.498788 6.692987 -9.514771 -9.146137 -1.441161 4.093257 -10.098330 -3.100168 -0.148181 5.130781 
0.322959 49.881386 2.079712 0.277799 0.700301 5.137169 0.000000 0.000000 0.000000 -3.185487 -1.455032 0.459084 5.126953 -0.771484 0.000000 5.643712 -0.400390 0.117185 -0.913570 8.226181 -2.289422 -4.974331 -3.811264 -14.193193 0.027264 -6.240738 15.056329 -3.654286 -5.392070 -3.086714 0.200467 -10.358541 -2.361779 3.872979 -8.203631 -17.708305 -0.934202 2.016382 16.269613 4.968320 -1.667271 -3.407309 6.349757 5.483569 5.457080 -1.777457 -3.228288 7.373524 -3.152350 0.065575 -2.453353 6.732108 -9.592752 -9.196441 -1.353163 4.102684 -9.945565 -3.118681 -0.165982 5.187066 
0.327493 49.881630 2.084484 0.307366 0.710082 5.088346 0.000000 0.000000 0.000000 -3.196330 -1.464788 0.498134 5.038772 -0.849609 0.019529 5.849011 -0.439453 0.078123 -0.848804 8.135657 -2.289460 -4.976891 -3.847949 -14.150444 0.032621 -6.294927 14.881635 -3.467657 -5.391781 -3.103491 0.207360 -10.427240 -2.361769 3.899754 -8.143254 -17.740339 -0.896763 2.060424 15.781436 5.226153 -2.062908 -3.432092 6.384030 5.448043 5.412056 -1.883336 -3.178994 7.505555 -3.208000 0.068012 -2.304994 6.638010 -9.625883 -9.198499 -1.200773 4.079277 -9.904023 -3.206451 -0.162385 5.232142 
0.336531 49.865894 2.085033 0.211255 0.622575 5.049166 0.000000 0.000000 0.000000 -3.128603 -1.425719 0.537186 5.067369 -0.830078 0.068352 5.800116 -0.488281 0.078122 -0.775652 8.219603 -2.230139 -5.068356 -3.928997 -14.119135 0.026023 -6.344659 14.794253 -3.472688 -5.479881 -3.097711 0.253401 -10.281815 -2.302376 3.808381 -8.183871 -17.659170 -0.937365 2.089254 15.830486 5.079461 -1.895411 -3.421319 6.365548 5.565317 5.515620 -1.572523 -3.200196 7.397982 -3.461212 0.073878 -2.600179 6.784245 -9.528135 -9.148931 -1.337546 4.079483 -9.865462 -3.124996 -0.166491 5.260832 
0.343186 49.871189 2.089537 0.241185 0.525345 4.990472 0.000000 0.000000 0.000000 -3.110327 -1.406174 0.595763 4.950453 -0.703125 0.058589 5.955307 -0.722654 0.136708 -0.691342 8.411640 -2.221956 -5.204345 -4.004728 -14.027001 0.019873 -6.413291 14.669141 -3.362279 -5.522725 -3.104839 0.308087 -9.941785 -2.289334 3.458056 -8.233937 -17.522528 -0.968637 2.163072 15.596964 5.355396 -1.939140 -3.416239 6.363766 5.622688 5.572237 -1.640372 -3.199380 7.597282 -3.427734 0.095272 -2.580507 6.737926 -9.443604 -9.077499 -1.380585 4.082157 -9.898396 -3.059740 -0.195270 5.269079 
0.347006 49.871319 2.092211 0.313597 0.574005 4.971040 0.000000 0.000000 0.000000 -3.129869 -1.455005 0.576234 4.842748 -0.839843 0.068352 6.092836 -0.595702 0.087886 -0.691806 8.079720 -2.239843 -4.905888 -3.949320 -14.035611 0.020162 -6.422745 14.649733 -3.365993 -5.454605 -3.109212 0.206441 -10.192098 -2.310272 3.754842 -8.066928 -17.678629 -0.959397 2.177742 15.284364 5.055231 -2.151119 -3.432460 6.315041 5.574587 5.537685 -1.656136 -3.204374 7.520551 -3.448133 0.072250 -2.526802 6.718233 -9.511901 -9.115682 -1.459700 4.103741 -9.826771 -3.063356 -0.153645 5.159613 
0.358323 49.876099 2.097745 0.383200 0.583699 5.010101 0.000000 0.000000 0.000000 -3.187403 -1.474547 0.527420 4.813346 -0.927734 0.068350 6.180817 -0.537109 0.087887 -0.689205 7.972970 -2.288176 -4.909638 -3.925220 -14.087064 0.022685 -6.366018 14.805003 -3.417623 -5.408597 -3.107730 0.106340 -10.462327 -2.373166 4.050718 -7.954496 -17.661116 -0.940632 2.224920 15.020976 4.964479 -2.262966 -3.447931 6.285657 5.534848 5.484053 -1.759606 -3.221520 7.538043 -3.354351 0.092773 -2.401414 6.624701 -9.534191 -9.107840 -1.386455 4.079838 -9.888654 -3.099043 -0.182871 5.264227 
